Coordinates
version=1
nRows=4
nColumns=107
inDegrees=yes

Units are S.I. units (second, meters, Newtons, ...)
If the header above contains a line with 'inDegrees', this indicates whether rotational values are in degrees (yes) or radians (no).

endheader
time	sternoclavicular_r2	sternoclavicular_r3	unrotscap_r3	unrotscap_r2	acromioclavicular_r2	acromioclavicular_r3	acromioclavicular_r1	unrothum_r1	unrothum_r3	unrothum_r2	elv_angle	shoulder_elv	shoulder1_r2	shoulder_rot	elbow_flexion	pro_sup	deviation	flexion	proximal_distal_r1	proximal_distal_r3	cmc_flexion	cmc_abduction	mp_flexion	ip_flexion	mcp2_flexion	mcp2_abduction	pm2_flexion	md2_flexion	mcp3_flexion	mcp3_abduction	pm3_flexion	md3_flexion	mcp4_flexion	mcp4_abduction	pm4_flexion	md4_flexion	mcp5_flexion	mcp5_abduction	pm5_flexion	md5_flexion	bicpt_tx	bicpt_ty	bicpt_tz	bicpt2_tx	bicpt2_ty	bicpt2_tz	ptpt_tx	ptpt_ty	ptpt_tz	FCUpt_tx	FCUpt_ty	FCUpt_tz	EDCpt_tx	EDCpt_ty	EDCpt_tz	APLpt_tx	APLpt_ty	APLpt_tz	FPLpt_tx	FPLpt_ty	FPLpt_tz	FPLpt2_tx	FPLpt2_ty	FPLpt2_tz	PEC1pt2_tx	PEC1pt2_ty	PEC1pt2_tz	PEC1pt3_tx	PEC1pt3_ty	PEC1pt3_tz	PEC2pt2_tx	PEC2pt2_ty	PEC2pt2_tz	PEC2pt3_tx	PEC2pt3_ty	PEC2pt3_tz	PEC3pt2_tx	PEC3pt2_ty	PEC3pt2_tz	PEC3pt3_tx	PEC3pt3_ty	PEC3pt3_tz	DELT2pt2a_tx	DELT2pt2a_ty	DELT2pt2a_tz	DELT2pt2_tx	DELT2pt2_ty	DELT2pt2_tz	LAT1pt2_tx	LAT1pt2_ty	LAT1pt2_tz	LAT1pt3_tx	LAT1pt3_ty	LAT1pt3_tz	LAT2pt2_tx	LAT2pt2_ty	LAT2pt2_tz	LAT2pt3_tx	LAT2pt3_ty	LAT2pt3_tz	LAT3pt2_tx	LAT3pt2_ty	LAT3pt2_tz	LAT3pt3_tx	LAT3pt3_ty	LAT3pt3_tz
      0.40000000	     -0.32484635	      0.13758958	     -0.13758958	      0.32484635	     -0.06577478	      0.53156862	      0.23893644	     -0.23893644	     -0.53156862	      0.06577478	     98.03928485	     76.91026157	     -1.71110832	    -19.96300682	     30.06721421	     46.47808121	      0.20466886	     -0.72995694	      0.24347817	     -0.36497847	      8.86945533	    -10.18685476	    -25.07512540	     -3.50375222	     33.66886574	      7.46819026	     45.73431267	    -16.28495590	     43.00730000	      1.79202603	     20.33911967	     18.32983687	     46.93599357	     -7.78424277	     21.33047678	     25.50643981	     43.99454685	    -13.15833538	     32.54501803	      5.35776867	      0.00089453	     -0.03104616	     -0.00485509	      0.01653851	     -0.01836791	     -0.00674907	      0.00411579	     -0.06712061	     -0.00379406	      0.00843892	     -0.18335435	     -0.00041661	     -0.00557736	      0.00165024	      0.00008854	      0.00030062	      0.00012025	      0.00060125	      0.00038480	      0.00115439	      0.00064935	      0.00003406	     -0.00017804	     -0.00021365	      0.00252095	      0.00884469	      0.00615283	     -0.00824650	      0.01991123	     -0.01888576	      0.00252095	      0.00884469	      0.00615283	      0.00055546	      0.01845848	     -0.00969925	      0.00397598	      0.00491842	      0.01603577	      0.00000000	      0.00791184	      0.00000000	     -0.00722103	     -0.03337054	     -0.00652441	      0.01375498	     -0.00043080	     -0.00328526	     -0.00089729	      0.01504024	     -0.00615283	      0.00247822	      0.02170580	     -0.01794574	     -0.00602464	      0.01303203	     -0.00551191	     -0.01256202	      0.02751681	     -0.03080686	     -0.02358583	      0.01457023	     -0.00739194	     -0.01563843	      0.03178960	     -0.03849789
      0.43333333	     -0.32546825	      0.13785299	     -0.13785299	      0.32546825	     -0.06590070	      0.53258627	      0.23939386	     -0.23939386	     -0.53258627	      0.06590070	     97.81313953	     77.05750074	     -1.70716134	    -19.08319119	     30.27711214	     45.98244732	      0.22172682	     -0.68580405	      0.26067442	     -0.34290203	      7.59797700	    -11.03758367	    -21.60916993	     -8.29549559	     33.30410243	      7.39535302	     45.08069365	    -16.42640385	     40.31188033	      2.14236616	     23.90980396	     23.64031480	     46.03246900	     -7.79750068	     20.70947810	     29.68143420	     43.39294988	    -12.91449349	     31.73031975	      5.41626670	      0.00090147	     -0.03107022	     -0.00485896	      0.01654465	     -0.01842493	     -0.00680631	      0.00415242	     -0.06709693	     -0.00375413	      0.00838807	     -0.18336553	     -0.00041541	     -0.00551788	      0.00162912	      0.00009378	      0.00030781	      0.00012312	      0.00061562	      0.00039400	      0.00118200	      0.00066487	      0.00003560	     -0.00015788	     -0.00018946	      0.00252578	      0.00886162	      0.00616461	     -0.00826228	      0.01994935	     -0.01892191	      0.00252578	      0.00886162	      0.00616461	      0.00055653	      0.01849382	     -0.00971782	      0.00398151	      0.00492783	      0.01604911	      0.00000000	      0.00794239	      0.00000000	     -0.00723485	     -0.03343442	     -0.00654976	      0.01324160	     -0.00040395	     -0.00298660	     -0.00089900	      0.01506904	     -0.00616461	      0.00248297	      0.02174736	     -0.01798010	     -0.00603618	      0.01305698	     -0.00552246	     -0.01258607	      0.02756948	     -0.03086584	     -0.02363099	      0.01459813	     -0.00740609	     -0.01566837	      0.03185046	     -0.03857159
      0.46666667	     -0.32603804	      0.13809432	     -0.13809432	      0.32603804	     -0.06601607	      0.53351866	      0.23981297	     -0.23981297	     -0.53351866	      0.06601607	     97.98183966	     77.19240343	     -1.71010571	    -18.79076791	     29.60257156	     44.92244139	      0.19917932	     -0.77534567	      0.23784286	     -0.38767284	      9.62875577	     -9.81044212	    -26.76319226	     -2.87087554	     34.53714236	      7.68410346	     45.36092960	    -16.74250427	     43.24812168	      1.93359561	     22.04316113	     18.62425411	     47.61133786	     -8.08955031	     21.94420607	     24.64805641	     45.06181841	    -13.14867897	     32.04966470	      5.39324606	      0.00087916	     -0.03099291	     -0.00484651	      0.01655590	     -0.01824168	     -0.00692758	      0.00423074	     -0.06704629	     -0.00366874	      0.00827956	     -0.18338923	     -0.00041224	     -0.00539068	      0.00158422	      0.00010452	      0.00028984	      0.00011594	      0.00057969	      0.00037100	      0.00111300	      0.00062606	      0.00003316	     -0.00018921	     -0.00022706	      0.00253020	      0.00887713	      0.00617540	     -0.00827675	      0.01998427	     -0.01895504	      0.00253020	      0.00887713	      0.00617540	      0.00055750	      0.01852619	     -0.00973483	      0.00398656	      0.00493646	      0.01606129	      0.00000000	      0.00797042	      0.00000000	     -0.00724752	     -0.03349295	     -0.00657303	      0.01306868	     -0.00039509	     -0.00289007	     -0.00090058	      0.01509542	     -0.00617540	      0.00248731	      0.02178543	     -0.01801158	     -0.00604674	      0.01307983	     -0.00553213	     -0.01260810	      0.02761775	     -0.03091987	     -0.02367236	      0.01462368	     -0.00741905	     -0.01569580	      0.03190622	     -0.03863912
      0.50000000	     -0.32724387	      0.13860506	     -0.13860506	      0.32724387	     -0.06626023	      0.53549185	      0.24069990	     -0.24069990	     -0.53549185	      0.06626023	     97.84370194	     77.47789479	     -1.70769475	    -17.38768045	     29.34805004	     43.32155447	      0.21223911	     -0.77696650	      0.25116834	     -0.38848325	      9.68981151	     -9.08600643	    -27.24905303	     -2.85981844	     33.91705729	      7.89593347	     46.99989298	    -16.03124791	     45.10953441	      2.23270350	     20.51381748	     17.60538079	     46.94437717	     -7.61605333	     22.03865490	     24.41407930	     44.81057121	    -13.17445318	     33.05813707	      5.38924797	      0.00087074	     -0.03096374	     -0.00484181	      0.01656799	     -0.01817254	     -0.00710771	      0.00434903	     -0.06696980	     -0.00353978	      0.00811635	     -0.18342440	     -0.00040584	     -0.00519857	      0.00151706	      0.00011959	      0.00028939	      0.00011576	      0.00057879	      0.00037043	      0.00111128	      0.00062509	      0.00003308	     -0.00019008	     -0.00022810	      0.00253956	      0.00890997	      0.00619824	     -0.00830736	      0.02005818	     -0.01902514	      0.00253956	      0.00890997	      0.00619824	      0.00055956	      0.01859471	     -0.00977083	      0.00399725	      0.00495472	      0.01608691	      0.00000000	      0.00802992	      0.00000000	     -0.00727432	     -0.03361683	     -0.00662241	      0.01222317	     -0.00035309	     -0.00244633	     -0.00090391	      0.01515125	     -0.00619824	      0.00249651	      0.02186600	     -0.01807819	     -0.00606911	      0.01312821	     -0.00555259	     -0.01265473	      0.02771989	     -0.03103423	     -0.02375991	      0.01467777	     -0.00744649	     -0.01575385	      0.03202422	     -0.03878202
